<?xml version="1.0" standalone="no"?>
<!DOCTYPE svg PUBLIC "-//W3C//DTD SVG 20010904//EN"
 "http://www.w3.org/TR/2001/REC-SVG-20010904/DTD/svg10.dtd">
<svg version="1.0" xmlns="http://www.w3.org/2000/svg"
 width="1181.000000pt" height="1181.000000pt" viewBox="0 0 1181.000000 1181.000000"
 preserveAspectRatio="xMidYMid meet">

<g transform="translate(0.000000,1181.000000) scale(0.100000,-0.100000)"
fill="#000000" stroke="none">
<path d="M5931 9461 c-11 -20 -19 -21 -190 -21 -743 0 -1609 -283 -2245 -733
-630 -446 -1041 -1050 -1146 -1687 -26 -154 -31 -216 -31 -403 0 -254 16 -388
75 -622 101 -396 347 -822 656 -1137 l86 -88 89 0 c111 0 285 -29 383 -63 146
-51 265 -145 317 -253 25 -51 29 -74 33 -167 l4 -107 45 -26 c24 -15 45 -25
47 -23 1 2 20 30 40 61 39 60 83 103 135 134 35 21 39 30 13 38 -47 15 -313
172 -438 259 -573 397 -941 896 -1079 1462 -51 208 -60 287 -59 520 0 227 5
278 50 477 37 163 78 278 159 443 226 461 594 835 1135 1152 258 151 615 293
950 379 227 58 431 87 770 112 l105 7 43 110 42 110 -6 -260 c-4 -143 -8 -262
-10 -264 -2 -2 6 -9 18 -15 17 -9 24 -26 34 -81 32 -185 110 -385 289 -750
202 -411 233 -491 304 -765 82 -320 105 -517 105 -890 0 -264 -3 -323 -22
-440 -61 -384 -159 -655 -328 -912 -65 -98 -195 -226 -264 -260 -84 -41 -86
-19 -4 56 185 169 272 366 398 901 129 548 92 1233 -96 1825 -44 137 -131 346
-207 498 -101 203 -153 369 -214 692 l-15 75 -1 -220 c-1 -121 -6 -418 -11
-660 -5 -242 -14 -667 -20 -945 -5 -278 -15 -712 -20 -965 -5 -253 -12 -613
-15 -800 -3 -187 -7 -398 -10 -470 l-5 -130 32 -57 c28 -47 130 -168 143 -168
2 0 25 32 51 70 26 39 50 73 54 75 4 3 36 -18 70 -45 34 -28 71 -50 82 -50 24
0 21 17 -28 163 -37 111 -36 117 26 117 46 0 281 27 345 40 175 34 274 57 378
86 639 182 1084 534 1306 1033 94 213 91 558 -8 858 -90 275 -241 513 -471
744 -204 205 -394 340 -735 525 -230 124 -418 238 -535 325 -185 137 -345 319
-425 485 -45 92 -96 264 -100 339 -5 85 -43 305 -55 319 -5 4 -13 -1 -19 -13z
m123 -643 c25 -95 64 -196 96 -253 88 -149 191 -255 510 -521 493 -412 722
-730 829 -1152 74 -290 73 -650 -4 -947 -104 -403 -328 -752 -612 -955 -138
-98 -429 -231 -471 -215 -24 9 -5 22 102 70 117 52 224 117 331 201 589 456
787 1464 429 2177 -119 236 -242 378 -669 772 -346 319 -405 385 -484 540 -49
96 -78 179 -87 246 -6 42 -4 49 10 49 9 0 18 -6 20 -12z"/>
<path d="M5871 8674 c0 -11 3 -14 6 -6 3 7 2 16 -1 19 -3 4 -6 -2 -5 -13z"/>
<path d="M3402 6510 c0 -14 2 -19 5 -12 2 6 2 18 0 25 -3 6 -5 1 -5 -13z"/>
<path d="M2411 4624 c-403 -16 -385 -11 -376 -99 2 -27 9 -205 15 -395 6 -190
15 -451 20 -580 6 -129 10 -254 10 -277 0 -32 5 -45 19 -53 14 -7 107 -7 303
0 156 5 418 14 584 20 324 11 453 27 599 75 224 74 338 206 338 390 0 60 -4
80 -29 124 -34 64 -90 113 -167 149 -31 14 -56 29 -55 33 2 3 28 26 58 51 70
56 96 95 110 164 38 182 -98 326 -370 391 -90 22 -595 25 -1059 7z m1004 -29
c201 -38 312 -101 367 -208 27 -55 29 -156 4 -210 -26 -52 -96 -119 -156 -147
-53 -25 -64 -40 -29 -40 61 0 210 -92 248 -153 63 -103 42 -257 -50 -362 -69
-78 -211 -139 -409 -176 -80 -14 -186 -21 -450 -29 -190 -5 -450 -15 -579 -20
-128 -6 -235 -9 -237 -8 -3 4 -20 437 -34 883 -5 176 -11 350 -13 387 l-3 66
151 6 c717 30 1073 33 1190 11z"/>
<path d="M2915 4364 c-27 -2 -124 -5 -215 -6 l-165 -3 -2 -133 c-1 -107 1
-134 13 -139 28 -11 618 15 669 30 105 29 145 64 145 127 0 83 -75 118 -268
124 -70 2 -149 2 -177 0z m252 -35 c99 -14 140 -31 153 -64 25 -65 -48 -117
-189 -134 -46 -6 -190 -14 -321 -17 l-237 -7 -7 91 c-11 139 -23 131 207 135
105 1 220 3 254 5 34 1 97 -3 140 -9z"/>
<path d="M2905 3849 c-104 -3 -230 -7 -279 -8 l-88 -1 7 -152 c3 -84 9 -161
12 -172 6 -20 -25 -21 488 4 189 9 251 21 310 61 45 31 65 68 65 122 0 98 -68
133 -290 150 -19 2 -120 0 -225 -4z m408 -56 c51 -23 83 -73 71 -110 -35 -107
-98 -126 -502 -144 -199 -8 -276 -9 -284 -1 -7 7 -13 66 -16 141 l-5 129 24 5
c13 3 168 4 344 3 307 -1 322 -2 368 -23z"/>
<path d="M7571 4589 c-5 -13 -14 -204 -20 -424 -7 -220 -16 -518 -22 -663 -13
-309 -20 -291 101 -293 41 -1 138 -4 215 -8 104 -5 145 -4 161 5 24 14 22 -11
49 684 8 201 18 437 22 526 l6 160 -29 12 c-16 6 -127 14 -251 18 l-222 7 -10
-24z m424 -23 c22 -1 42 -4 45 -8 3 -4 2 -55 -2 -115 -4 -59 -12 -241 -18
-403 -21 -580 -30 -795 -34 -805 -2 -7 -74 -7 -212 -1 -115 5 -210 9 -211 10
-1 1 4 197 12 436 8 239 17 516 20 615 3 99 8 204 11 234 l6 53 171 -8 c95 -4
190 -8 212 -8z"/>
<path d="M9694 4455 c-49 -22 -92 -78 -100 -131 -9 -64 8 -115 55 -157 45 -41
90 -52 159 -42 38 6 55 15 89 51 65 67 71 153 15 223 -53 66 -142 89 -218 56z
m121 -6 c51 -14 90 -51 111 -106 14 -37 15 -50 5 -83 -37 -125 -185 -167 -278
-78 -100 96 -32 263 112 277 6 0 28 -4 50 -10z"/>
<path d="M9710 4290 c0 -92 1 -100 19 -100 16 0 20 8 23 38 4 47 17 47 47 -1
17 -26 32 -37 48 -37 l24 0 -29 43 c-29 42 -29 42 -10 68 15 20 17 31 9 51
-10 27 -35 38 -93 38 l-38 0 0 -100z m78 61 c21 -13 10 -46 -16 -49 -19 -3
-22 1 -22 27 0 31 13 39 38 22z"/>
<path d="M4700 4340 c-337 -33 -530 -152 -556 -343 -11 -79 -13 -78 236 -76
136 2 223 7 232 13 8 6 19 25 25 41 21 66 108 92 272 83 101 -6 161 -27 161
-57 0 -39 -34 -46 -390 -81 -286 -28 -419 -69 -509 -159 -56 -56 -73 -95 -78
-183 -7 -93 14 -144 82 -206 52 -49 97 -73 195 -103 67 -22 93 -24 255 -24
200 1 277 15 395 75 33 17 64 30 69 30 5 0 16 -17 24 -39 10 -24 24 -41 39
-45 45 -12 483 -7 496 6 7 7 12 27 12 45 0 27 -7 37 -39 57 -28 18 -40 33 -43
56 -3 17 -3 158 0 313 4 240 2 291 -11 338 -35 118 -169 201 -392 244 -96 18
-357 27 -475 15z m450 -44 c176 -29 312 -94 361 -173 l24 -38 0 -343 0 -344
28 -24 c15 -13 35 -24 43 -24 9 0 14 -11 14 -31 l0 -31 -232 5 -231 5 -20 52
c-10 28 -22 49 -25 48 -78 -42 -193 -90 -252 -104 -104 -26 -377 -26 -465 0
-149 44 -230 108 -260 206 -17 57 -17 62 0 125 42 158 207 238 545 265 225 18
358 37 393 58 40 23 46 56 16 88 -27 29 -61 40 -164 54 -158 21 -314 -29 -323
-104 l-3 -26 -194 0 c-106 0 -200 -3 -209 -6 -25 -9 -20 51 8 111 70 150 203
210 556 249 64 8 304 -4 390 -18z"/>
<path d="M5078 3755 c-4 -5 -136 -25 -298 -45 -99 -13 -167 -38 -196 -73 -29
-35 -30 -62 -4 -104 68 -113 449 -62 514 69 20 40 22 158 3 158 -8 0 -16 -2
-19 -5z m-5 -79 c-6 -96 -84 -148 -249 -167 -75 -9 -109 -9 -142 0 -78 22
-106 76 -59 118 32 29 72 40 215 58 70 9 143 20 162 25 64 15 75 10 73 -34z"/>
<path d="M6295 4319 c-154 -17 -344 -95 -411 -170 -45 -50 -64 -100 -64 -172
0 -85 17 -124 77 -177 90 -79 336 -151 633 -186 67 -8 218 -42 243 -56 17 -9
17 -11 3 -27 -22 -24 -102 -41 -189 -41 -82 1 -213 22 -248 40 -37 19 -69 52
-69 71 0 36 -24 40 -257 46 -211 6 -230 5 -246 -12 -15 -14 -17 -26 -11 -59
37 -227 343 -356 842 -356 354 1 581 77 674 228 33 54 33 181 0 234 -75 122
-199 167 -702 258 -171 30 -245 50 -245 66 0 5 16 17 35 27 30 16 55 18 170
15 161 -5 210 -22 230 -82 6 -19 19 -37 28 -40 9 -2 114 -7 232 -11 261 -8
261 -8 243 79 -21 100 -98 176 -238 238 -178 79 -475 114 -730 87z m465 -46
c167 -27 292 -74 382 -147 43 -33 88 -116 88 -160 l0 -29 -122 6 c-66 4 -163
7 -215 7 -84 0 -93 2 -93 19 0 23 -41 64 -84 85 -19 9 -79 21 -134 26 -157 16
-261 -6 -296 -64 -24 -38 66 -72 289 -111 487 -84 612 -131 666 -250 10 -22
19 -62 19 -90 0 -245 -385 -363 -963 -294 -269 31 -442 126 -492 270 -28 78
-27 79 78 79 50 0 149 -3 219 -7 118 -6 128 -8 134 -27 16 -53 80 -90 191
-112 150 -28 318 -14 373 33 36 30 37 36 8 62 -28 27 -99 47 -271 77 -165 28
-329 61 -372 74 -225 67 -266 94 -300 189 -20 58 -19 79 6 145 72 195 454 289
889 219z"/>
<path d="M8763 4220 c-162 -17 -306 -72 -384 -146 -35 -33 -79 -123 -86 -172
-4 -32 -2 -42 13 -50 23 -12 415 -36 449 -28 15 4 27 18 35 40 20 61 47 71
195 71 105 -1 139 -5 180 -21 35 -13 51 -26 53 -40 6 -41 -18 -47 -241 -56
-382 -15 -513 -37 -615 -102 -167 -107 -192 -313 -53 -439 123 -111 382 -168
627 -138 91 11 117 18 222 60 l53 21 16 -39 c10 -26 25 -43 42 -50 14 -5 128
-15 253 -22 256 -14 261 -13 256 50 -2 27 -9 39 -29 48 -53 26 -52 17 -34 365
21 378 20 384 -56 460 -84 84 -251 150 -444 177 -105 15 -359 21 -452 11z
m434 -41 c236 -28 419 -114 475 -222 23 -46 23 -108 -3 -509 -13 -201 -12
-208 7 -229 10 -12 29 -25 42 -30 15 -6 22 -17 22 -34 0 -19 -5 -25 -22 -25
-49 0 -356 20 -400 26 -46 6 -47 6 -59 55 -7 27 -17 49 -22 49 -6 0 -33 -11
-62 -24 -207 -98 -558 -97 -753 3 -127 65 -187 177 -157 293 18 65 48 108 105
147 103 71 243 97 563 105 229 7 284 16 318 52 22 24 22 26 7 52 -30 50 -113
75 -263 80 -122 3 -133 2 -175 -20 -30 -16 -51 -37 -64 -62 -18 -37 -19 -37
-65 -32 -25 3 -119 8 -208 12 -145 6 -161 8 -154 23 4 9 11 31 15 50 3 19 24
58 45 86 69 91 215 151 401 165 110 8 289 3 407 -11z"/>
<path d="M9199 3619 c-21 -4 -104 -13 -185 -18 -178 -11 -243 -25 -286 -61
-25 -21 -32 -35 -32 -63 0 -42 22 -71 77 -99 51 -25 231 -27 304 -3 103 34
137 57 158 108 15 37 21 148 8 146 -5 -1 -24 -5 -44 -10z m9 -81 c-5 -45 -11
-57 -41 -83 -49 -42 -94 -56 -209 -62 -117 -7 -158 0 -198 33 -36 31 -39 63
-7 92 30 28 89 40 264 52 81 6 149 13 152 15 2 3 13 5 24 5 18 0 19 -5 15 -52z"/>
<path d="M7390 4035 c0 -8 4 -15 10 -15 5 0 7 7 4 15 -4 8 -8 15 -10 15 -2 0
-4 -7 -4 -15z"/>
<path d="M5691 3832 c-1 -86 6 -96 42 -69 16 11 15 17 -12 82 l-29 69 -1 -82z"/>
<path d="M2553 3064 c-52 -19 -118 -89 -132 -140 -30 -109 7 -216 94 -266 56
-32 192 -33 245 -2 l35 20 3 98 c2 65 -1 103 -9 112 -9 11 -34 14 -103 12
l-91 -3 0 -50 0 -50 38 -3 c32 -3 37 -7 37 -28 0 -21 -5 -24 -35 -24 -68 0
-111 78 -85 154 23 70 86 92 172 62 46 -17 58 -6 58 51 0 34 -5 45 -22 54 -36
19 -157 21 -205 3z m190 -20 c11 -4 15 -16 14 -40 -2 -26 -5 -33 -17 -28 -8 4
-41 9 -72 12 -97 8 -148 -41 -148 -142 0 -44 27 -98 57 -114 16 -9 68 -16 101
-13 7 1 12 17 12 46 l0 45 -40 0 c-39 0 -40 1 -40 35 l0 35 80 0 80 0 0 -99
c0 -98 0 -99 -27 -109 -111 -43 -224 -16 -279 65 -53 79 -35 205 37 266 22 20
57 40 77 46 37 10 134 7 165 -5z"/>
<path d="M2155 3058 c-3 -8 -4 -103 -3 -213 l3 -200 130 0 130 0 0 50 0 50
-72 3 c-70 3 -73 4 -73 27 0 23 4 24 63 27 l62 3 0 50 0 50 -62 3 c-59 3 -63
4 -63 27 0 23 4 24 68 27 l67 3 0 50 0 50 -123 3 c-94 2 -124 0 -127 -10z
m233 -40 l-3 -33 -67 -3 -68 -3 0 -44 0 -45 65 0 65 0 0 -35 0 -35 -65 0 -65
0 0 -45 0 -45 75 0 75 0 0 -35 0 -35 -115 0 -115 0 0 195 0 195 111 0 110 0
-3 -32z"/>
<path d="M2796 3061 c-4 -6 21 -67 54 -137 55 -116 60 -133 60 -194 0 -81 10
-92 77 -88 l48 3 5 80 c5 73 11 90 63 193 32 61 62 112 66 112 5 0 9 -84 10
-187 1 -103 5 -191 10 -196 5 -5 30 -7 57 -5 l49 3 3 61 3 62 49 4 c89 9 150
71 150 152 0 36 0 36 45 36 l44 0 3 -157 3 -158 60 0 60 0 3 157 3 157 52 3
52 3 0 50 0 50 -170 0 -170 0 -6 -30 c-4 -16 -7 -25 -8 -18 0 6 -20 21 -44 32
-35 17 -62 21 -138 21 -59 0 -99 -4 -107 -12 -8 -8 -15 -8 -26 1 -8 7 -35 11
-63 9 l-48 -3 -31 -65 -31 -64 -22 49 c-34 81 -33 80 -99 83 -33 2 -63 -2 -66
-7z m149 -102 l38 -90 22 53 c50 124 54 128 96 128 22 0 39 -3 39 -7 0 -3 -27
-59 -60 -124 -57 -111 -60 -122 -60 -188 l0 -71 -40 0 -40 0 0 67 c0 62 -5 77
-60 190 -33 67 -60 125 -60 128 0 3 20 5 44 5 l43 0 38 -91z m454 78 c69 -24
100 -113 62 -174 -28 -45 -61 -63 -125 -70 l-56 -6 0 -63 0 -64 -40 0 -40 0 0
195 0 195 83 -1 c45 0 97 -5 116 -12z m409 -22 l-1 -35 -56 0 -56 0 2 -161 3
-160 -43 3 -42 3 -3 160 c-2 102 -7 163 -14 170 -8 7 -9 6 -4 -2 5 -10 -6 -13
-43 -13 l-51 0 0 35 0 35 155 0 154 0 -1 -35z"/>
<path d="M3280 2920 l0 -60 43 0 c50 0 67 13 67 53 0 51 -16 67 -65 67 l-45 0
0 -60z m84 18 c15 -25 -3 -52 -38 -56 -24 -3 -26 -1 -26 38 0 39 2 41 26 38
15 -2 32 -11 38 -20z"/>
</g>
</svg>
