<svg xmlns="http://www.w3.org/2000/svg" width="100" height="100" viewBox="0 0 100 100" fill="none">
  <circle cx="50" cy="50" r="46" fill="#0D0D0D" stroke="#F5922A" strokeWidth="3"/>
  <path d="M50 4 A46 46 0 0 1 50 96 Z" fill="#F5922A"/>
  <path d="M50 12 Q75 30 75 50 Q75 70 50 88" stroke="rgba(0,0,0,0.15)" strokeWidth="4" fill="none" strokeLinecap="round"/>
  <path d="M50 18 Q68 32 68 50 Q68 68 50 82" stroke="rgba(0,0,0,0.1)" strokeWidth="3" fill="none" strokeLinecap="round"/>
  <path d="M50 4 A46 46 0 0 0 50 96 Z" fill="#141414"/>
  <path d="M50 16 Q30 30 30 50 Q30 70 50 84" stroke="#F5922A" strokeWidth="2.5" fill="none" strokeLinecap="round" opacity="0.7"/>
  <path d="M50 24 Q36 35 36 50 Q36 65 50 76" stroke="#F5922A" strokeWidth="1.5" fill="none" strokeLinecap="round" opacity="0.45"/>
  <line x1="50" y1="4" x2="50" y2="96" stroke="rgba(255,255,255,0.12)" strokeWidth="1"/>
  <path d="M46 10 Q50 2 54 10" stroke="#22C55E" strokeWidth="3" strokeLinecap="round" fill="none"/>
  <circle cx="62" cy="32" r="4" fill="rgba(255,255,255,0.2)"/>
  <circle cx="50" cy="50" r="46" stroke="#F5922A" strokeWidth="1" opacity="0.3"/>
</svg>